<?xml version="1.0" encoding="UTF-8" standalone="no"?>
<svg width="50px" height="86px" viewBox="0 0 50 86" version="1.1" xmlns="http://www.w3.org/2000/svg" xmlns:xlink="http://www.w3.org/1999/xlink">
    <!-- Generator: Sketch 41.2 (35397) - http://www.bohemiancoding.com/sketch -->
    <title>Page 1</title>
    <desc>Created with Sketch.</desc>
    <defs>
        <polygon id="path-1" points="6.333 0.054 0 0.054 0 3.22085 0 6.3877 6.333 6.3877 6.333 0.054"></polygon>
    </defs>
    <g id="Page-1" stroke="none" stroke-width="1" fill="none" fill-rule="evenodd">
        <g transform="translate(0.000000, -1.000000)">
            <path d="M49.7871,83.1992 C49.7871,84.9492 48.3701,86.3672 46.6201,86.3672 C44.8711,86.3672 43.4541,84.9492 43.4541,83.1992 C43.4541,81.4512 44.8711,80.0332 46.6201,80.0332 C48.3701,80.0332 49.7871,81.4512 49.7871,83.1992" id="Fill-1" fill="#A77B52"></path>
            <path d="M37.4365,73.3262 C37.4365,75.0752 36.0195,76.4932 34.2695,76.4932 C32.5205,76.4932 31.1035,75.0752 31.1035,73.3262 C31.1035,71.5782 32.5205,70.1602 34.2695,70.1602 C36.0195,70.1602 37.4365,71.5782 37.4365,73.3262" id="Fill-3" fill="#A77B52"></path>
            <path d="M26.3672,62.0928 C26.3672,63.8418 24.9502,65.2598 23.2002,65.2598 C21.4512,65.2598 20.0342,63.8418 20.0342,62.0928 C20.0342,60.3448 21.4512,58.9268 23.2002,58.9268 C24.9502,58.9268 26.3672,60.3448 26.3672,62.0928" id="Fill-5" fill="#A77B52"></path>
            <path d="M16.6016,49.6875 C16.6016,51.4375 15.1846,52.8555 13.4346,52.8555 C11.6856,52.8555 10.2686,51.4375 10.2686,49.6875 C10.2686,47.9395 11.6856,46.5215 13.4346,46.5215 C15.1846,46.5215 16.6016,47.9395 16.6016,49.6875" id="Fill-7" fill="#A77B52"></path>
            <path d="M10.1064,35.249 C10.1064,36.998 8.6894,38.416 6.9394,38.416 C5.1904,38.416 3.7734,36.998 3.7734,35.249 C3.7734,33.501 5.1904,32.083 6.9394,32.083 C8.6894,32.083 10.1064,33.501 10.1064,35.249" id="Fill-9" fill="#A77B52"></path>
            <path d="M7.0747,19.9815 C7.0747,21.7305 5.6577,23.1485 3.9077,23.1485 C2.1587,23.1485 0.7417,21.7305 0.7417,19.9815 C0.7417,18.2335 2.1587,16.8155 3.9077,16.8155 C5.6577,16.8155 7.0747,18.2335 7.0747,19.9815" id="Fill-11" fill="#A77B52"></path>
            <g id="Group-15" transform="translate(0.000000, 0.946300)">
                <mask id="mask-2" fill="white">
                    <use xlink:href="#path-1"></use>
                </mask>
                <g id="Clip-14"></g>
                <path d="M6.333,3.2197 C6.333,4.9697 4.916,6.3877 3.166,6.3877 C1.417,6.3877 0,4.9697 0,3.2197 C0,1.4717 1.417,0.0537 3.166,0.0537 C4.916,0.0537 6.333,1.4717 6.333,3.2197" id="Fill-13" fill="#A77B52" mask="url(#mask-2)"></path>
            </g>
        </g>
    </g>
</svg>