<?xml version="1.0" encoding="UTF-8" standalone="no"?>
<svg width="7px" height="51px" viewBox="0 0 7 51" version="1.1" xmlns="http://www.w3.org/2000/svg" xmlns:xlink="http://www.w3.org/1999/xlink">
    <!-- Generator: Sketch 41.2 (35397) - http://www.bohemiancoding.com/sketch -->
    <title>Group</title>
    <desc>Created with Sketch.</desc>
    <defs></defs>
    <g id="Page-1" stroke="none" stroke-width="1" fill="none" fill-rule="evenodd">
        <g id="Group" fill="#A77B52">
            <path d="M6.68655339,47.0195534 C6.68655339,48.7685534 5.26855339,50.1865534 3.52055339,50.1865534 C1.77055339,50.1865534 0.353553391,48.7685534 0.353553391,47.0195534 C0.353553391,45.2715534 1.77055339,43.8535534 3.52055339,43.8535534 C5.26855339,43.8535534 6.68655339,45.2715534 6.68655339,47.0195534" id="Fill-1" transform="translate(3.520053, 47.020053) rotate(0.000000) translate(-3.520053, -47.020053) "></path>
            <path d="M6.68655339,32.0195534 C6.68655339,33.7685534 5.26855339,35.1865534 3.52055339,35.1865534 C1.77055339,35.1865534 0.353553391,33.7685534 0.353553391,32.0195534 C0.353553391,30.2715534 1.77055339,28.8535534 3.52055339,28.8535534 C5.26855339,28.8535534 6.68655339,30.2715534 6.68655339,32.0195534" id="Fill-3" transform="translate(3.520053, 32.020053) rotate(0.000000) translate(-3.520053, -32.020053) "></path>
            <path d="M6.68655339,18.0195534 C6.68655339,19.7685534 5.26855339,21.1865534 3.52055339,21.1865534 C1.77055339,21.1865534 0.353553391,19.7685534 0.353553391,18.0195534 C0.353553391,16.2715534 1.77055339,14.8535534 3.52055339,14.8535534 C5.26855339,14.8535534 6.68655339,16.2715534 6.68655339,18.0195534" id="Fill-3" transform="translate(3.520053, 18.020053) rotate(0.000000) translate(-3.520053, -18.020053) "></path>
            <path d="M6.68655339,4.01955339 C6.68655339,5.76855339 5.26855339,7.18655339 3.52055339,7.18655339 C1.77055339,7.18655339 0.353553391,5.76855339 0.353553391,4.01955339 C0.353553391,2.27155339 1.77055339,0.853553391 3.52055339,0.853553391 C5.26855339,0.853553391 6.68655339,2.27155339 6.68655339,4.01955339" id="Fill-3" transform="translate(3.520053, 4.020053) rotate(0.000000) translate(-3.520053, -4.020053) "></path>
        </g>
    </g>
</svg>