<?xml version="1.0" encoding="UTF-8" standalone="no"?>
<svg width="59px" height="92px" viewBox="0 0 59 92" version="1.1" xmlns="http://www.w3.org/2000/svg" xmlns:xlink="http://www.w3.org/1999/xlink">
    <!-- Generator: Sketch 41.2 (35397) - http://www.bohemiancoding.com/sketch -->
    <title>Page 1</title>
    <desc>Created with Sketch.</desc>
    <defs>
        <polygon id="path-1" points="6.485 7.0381 6.485 0.7051 0.1524 0.7051 0.1524 7.0381 6.485 7.0381"></polygon>
    </defs>
    <g id="Page-1" stroke="none" stroke-width="1" fill="none" fill-rule="evenodd">
        <g>
            <path d="M6.458,3.8062 C6.458,5.5552 5.041,6.9732 3.291,6.9732 C1.543,6.9732 0.125,5.5552 0.125,3.8062 C0.125,2.0582 1.543,0.6402 3.291,0.6402 C5.041,0.6402 6.458,2.0582 6.458,3.8062" id="Fill-1" fill="#A77B52"></path>
            <path d="M20.3232,11.3765 C20.3232,13.1255 18.9062,14.5435 17.1562,14.5435 C15.4082,14.5435 13.9902,13.1255 13.9902,11.3765 C13.9902,9.6285 15.4082,8.2105 17.1562,8.2105 C18.9062,8.2105 20.3232,9.6285 20.3232,11.3765" id="Fill-3" fill="#A77B52"></path>
            <path d="M33.4365,20.2164 C33.4365,21.9654 32.0195,23.3834 30.2695,23.3834 C28.5215,23.3834 27.1035,21.9654 27.1035,20.2164 C27.1035,18.4684 28.5215,17.0504 30.2695,17.0504 C32.0195,17.0504 33.4365,18.4684 33.4365,20.2164" id="Fill-5" fill="#A77B52"></path>
            <path d="M44.9326,31.1026 C44.9326,32.8516 43.5156,34.2696 41.7656,34.2696 C40.0176,34.2696 38.5996,32.8516 38.5996,31.1026 C38.5996,29.3546 40.0176,27.9366 41.7656,27.9366 C43.5156,27.9366 44.9326,29.3546 44.9326,31.1026" id="Fill-7" fill="#A77B52"></path>
            <path d="M53.8281,44.0713 C53.8281,45.8203 52.4101,47.2383 50.6621,47.2383 C48.9121,47.2383 47.4951,45.8203 47.4951,44.0713 C47.4951,42.3233 48.9121,40.9053 50.6621,40.9053 C52.4101,40.9053 53.8281,42.3233 53.8281,44.0713" id="Fill-9" fill="#A77B52"></path>
            <g id="Group-13" transform="translate(52.000000, 54.964400)">
                <mask id="mask-2" fill="white">
                    <use xlink:href="#path-1"></use>
                </mask>
                <g id="Clip-12"></g>
                <path d="M6.4854,3.8711 C6.4854,5.6201 5.0684,7.0381 3.3184,7.0381 C1.5704,7.0381 0.1524,5.6201 0.1524,3.8711 C0.1524,2.1231 1.5704,0.7051 3.3184,0.7051 C5.0684,0.7051 6.4854,2.1231 6.4854,3.8711" id="Fill-11" fill="#A77B52" mask="url(#mask-2)"></path>
            </g>
            <path d="M57.3896,74.1617 C57.3896,75.9107 55.9726,77.3287 54.2226,77.3287 C52.4746,77.3287 51.0566,75.9107 51.0566,74.1617 C51.0566,72.4137 52.4746,70.9957 54.2226,70.9957 C55.9726,70.9957 57.3896,72.4137 57.3896,74.1617" id="Fill-14" fill="#A77B52"></path>
            <path d="M51.3525,88.7974 C51.3525,90.5464 49.9355,91.9644 48.1855,91.9644 C46.4375,91.9644 45.0195,90.5464 45.0195,88.7974 C45.0195,87.0494 46.4375,85.6314 48.1855,85.6314 C49.9355,85.6314 51.3525,87.0494 51.3525,88.7974" id="Fill-16" fill="#A77B52"></path>
        </g>
    </g>
</svg>