<?xml version="1.0" encoding="UTF-8" standalone="no"?>
<svg width="7px" height="64px" viewBox="0 0 7 64" version="1.1" xmlns="http://www.w3.org/2000/svg" xmlns:xlink="http://www.w3.org/1999/xlink">
    <g id="Page-1" stroke="none" stroke-width="1" fill="none" fill-rule="evenodd">
        <g id="Group" fill="#F65C5E">
            <path d="M6.333,60.166 C6.333,61.915 4.915,63.333 3.167,63.333 C1.417,63.333 -7.10542736e-15,61.915 -7.10542736e-15,60.166 C-7.10542736e-15,58.418 1.417,57 3.167,57 C4.915,57 6.333,58.418 6.333,60.166" id="Fill-1" transform="translate(3.166500, 60.166500) rotate(0.000000) translate(-3.166500, -60.166500) "></path>
            <path d="M6.333,45.166 C6.333,46.915 4.915,48.333 3.167,48.333 C1.417,48.333 7.10542736e-15,46.915 7.10542736e-15,45.166 C7.10542736e-15,43.418 1.417,42 3.167,42 C4.915,42 6.333,43.418 6.333,45.166" id="Fill-3" transform="translate(3.166500, 45.166500) rotate(0.000000) translate(-3.166500, -45.166500) "></path>
            <path d="M6.333,31.166 C6.333,32.915 4.915,34.333 3.167,34.333 C1.417,34.333 7.10542736e-15,32.915 7.10542736e-15,31.166 C7.10542736e-15,29.418 1.417,28 3.167,28 C4.915,28 6.333,29.418 6.333,31.166" id="Fill-3" transform="translate(3.166500, 31.166500) rotate(0.000000) translate(-3.166500, -31.166500) "></path>
            <path d="M6.333,17.166 C6.333,18.915 4.915,20.333 3.167,20.333 C1.417,20.333 7.10542736e-15,18.915 7.10542736e-15,17.166 C7.10542736e-15,15.418 1.417,14 3.167,14 C4.915,14 6.333,15.418 6.333,17.166" id="Fill-3" transform="translate(3.166500, 17.166500) rotate(0.000000) translate(-3.166500, -17.166500) "></path>
            <path d="M6.333,3.166 C6.333,4.915 4.915,6.333 3.167,6.333 C1.417,6.333 1.42108547e-14,4.915 1.42108547e-14,3.166 C1.42108547e-14,1.418 1.417,2.66453526e-15 3.167,2.66453526e-15 C4.915,2.66453526e-15 6.333,1.418 6.333,3.166" id="Fill-3-Copy" transform="translate(3.166500, 3.166500) rotate(0.000000) translate(-3.166500, -3.166500) "></path>
        </g>
    </g>
</svg>
