<?xml version="1.0" encoding="UTF-8" standalone="no"?>
<svg width="7px" height="36px" viewBox="0 0 7 36" version="1.1" xmlns="http://www.w3.org/2000/svg" xmlns:xlink="http://www.w3.org/1999/xlink">
    <!-- Generator: Sketch 41.2 (35397) - http://www.bohemiancoding.com/sketch -->
    <title>Group</title>
    <desc>Created with Sketch.</desc>
    <defs></defs>
    <g id="Page-1" stroke="none" stroke-width="1" fill="none" fill-rule="evenodd">
        <g id="Group" fill="#F65C5E">
            <path d="M6.333,32.166 C6.333,33.915 4.915,35.333 3.167,35.333 C1.417,35.333 -7.10542736e-15,33.915 -7.10542736e-15,32.166 C-7.10542736e-15,30.418 1.417,29 3.167,29 C4.915,29 6.333,30.418 6.333,32.166" id="Fill-1"></path>
            <path d="M6.333,17.166 C6.333,18.915 4.915,20.333 3.167,20.333 C1.417,20.333 7.10542736e-15,18.915 7.10542736e-15,17.166 C7.10542736e-15,15.418 1.417,14 3.167,14 C4.915,14 6.333,15.418 6.333,17.166" id="Fill-3"></path>
            <path d="M6.333,3.166 C6.333,4.915 4.915,6.333 3.167,6.333 C1.417,6.333 7.10542736e-15,4.915 7.10542736e-15,3.166 C7.10542736e-15,1.418 1.417,0 3.167,0 C4.915,0 6.333,1.418 6.333,3.166" id="Fill-3"></path>
        </g>
    </g>
</svg>