<?xml version="1.0" encoding="UTF-8" standalone="no"?>
<svg width="7px" height="93px" viewBox="0 0 7 93" version="1.1" xmlns="http://www.w3.org/2000/svg" xmlns:xlink="http://www.w3.org/1999/xlink">
    <g id="Page-1" stroke="none" stroke-width="1" fill="none" fill-rule="evenodd">
        <g id="Group" transform="translate(3.500000, 46.500000) rotate(-360.000000) translate(-3.500000, -46.500000) translate(-0.000000, 0.000000)" fill="#F65C5E">
            <path d="M6.333,60.166 C6.333,61.915 4.915,63.333 3.167,63.333 C1.417,63.333 2.66453526e-15,61.915 2.66453526e-15,60.166 C2.66453526e-15,58.418 1.417,57 3.167,57 C4.915,57 6.333,58.418 6.333,60.166" id="Fill-1"></path>
            <path d="M6.333,74.166 C6.333,75.915 4.915,77.333 3.167,77.333 C1.417,77.333 0,75.915 0,74.166 C0,72.418 1.417,71 3.167,71 C4.915,71 6.333,72.418 6.333,74.166" id="Fill-1"></path>
            <path d="M6.333,89.166 C6.333,90.915 4.915,92.333 3.167,92.333 C1.417,92.333 -4.4408921e-16,90.915 -4.4408921e-16,89.166 C-4.4408921e-16,87.418 1.417,86 3.167,86 C4.915,86 6.333,87.418 6.333,89.166" id="Fill-1"></path>
            <path d="M6.333,45.166 C6.333,46.915 4.915,48.333 3.167,48.333 C1.417,48.333 1.33226763e-15,46.915 1.33226763e-15,45.166 C1.33226763e-15,43.418 1.417,42 3.167,42 C4.915,42 6.333,43.418 6.333,45.166" id="Fill-3"></path>
            <path d="M6.333,31.166 C6.333,32.915 4.915,34.333 3.167,34.333 C1.417,34.333 -1.33226763e-15,32.915 -1.33226763e-15,31.166 C-1.33226763e-15,29.418 1.417,28 3.167,28 C4.915,28 6.333,29.418 6.333,31.166" id="Fill-3"></path>
            <path d="M6.333,17.166 C6.333,18.915 4.915,20.333 3.167,20.333 C1.417,20.333 2.66453526e-15,18.915 2.66453526e-15,17.166 C2.66453526e-15,15.418 1.417,14 3.167,14 C4.915,14 6.333,15.418 6.333,17.166" id="Fill-3"></path>
            <path d="M6.333,3.166 C6.333,4.915 4.915,6.333 3.167,6.333 C1.417,6.333 -8.8817842e-16,4.915 -8.8817842e-16,3.166 C-8.8817842e-16,1.418 1.417,0 3.167,0 C4.915,0 6.333,1.418 6.333,3.166" id="Fill-3-Copy"></path>
        </g>
    </g>
</svg>
