<?xml version="1.0" encoding="UTF-8" standalone="no"?>
<svg width="47px" height="173px" viewBox="0 0 47 173" version="1.1" xmlns="http://www.w3.org/2000/svg" xmlns:xlink="http://www.w3.org/1999/xlink">
    <!-- Generator: Sketch 41.2 (35397) - http://www.bohemiancoding.com/sketch -->
    <title>Page 1</title>
    <desc>Created with Sketch.</desc>
    <defs></defs>
    <g id="Page-1" stroke="none" stroke-width="1" fill="none" fill-rule="evenodd">
        <g fill="#EE5933">
            <path d="M46.0996,3.2847 C46.0996,5.0677 44.6546,6.5137 42.8706,6.5137 C41.0876,6.5137 39.6426,5.0677 39.6426,3.2847 C39.6426,1.5017 41.0876,0.0557 42.8706,0.0557 C44.6546,0.0557 46.0996,1.5017 46.0996,3.2847" id="Fill-1"></path>
            <path d="M45.0762,19.3935 C45.0762,21.1765 43.6312,22.6225 41.8472,22.6225 C40.0642,22.6225 38.6192,21.1765 38.6192,19.3935 C38.6192,17.6105 40.0642,16.1645 41.8472,16.1645 C43.6312,16.1645 45.0762,17.6105 45.0762,19.3935" id="Fill-3"></path>
            <path d="M43.1084,35.4072 C43.1084,37.1902 41.6634,38.6362 39.8794,38.6362 C38.0964,38.6362 36.6514,37.1902 36.6514,35.4072 C36.6514,33.6242 38.0964,32.1782 39.8794,32.1782 C41.6634,32.1782 43.1084,33.6242 43.1084,35.4072" id="Fill-5"></path>
            <path d="M39.1885,51.0527 C39.1885,52.8357 37.7435,54.2817 35.9595,54.2817 C34.1765,54.2817 32.7315,52.8357 32.7315,51.0527 C32.7315,49.2697 34.1765,47.8237 35.9595,47.8237 C37.7435,47.8237 39.1885,49.2697 39.1885,51.0527" id="Fill-7"></path>
            <path d="M32.7202,65.8467 C32.7202,67.6297 31.2752,69.0757 29.4912,69.0757 C27.7082,69.0757 26.2632,67.6297 26.2632,65.8467 C26.2632,64.0637 27.7082,62.6177 29.4912,62.6177 C31.2752,62.6177 32.7202,64.0637 32.7202,65.8467" id="Fill-9"></path>
            <path d="M25.8672,80.4507 C25.8672,82.2337 24.4222,83.6797 22.6382,83.6797 C20.8552,83.6797 19.4102,82.2337 19.4102,80.4507 C19.4102,78.6677 20.8552,77.2217 22.6382,77.2217 C24.4222,77.2217 25.8672,78.6677 25.8672,80.4507" id="Fill-11"></path>
            <path d="M18.0513,94.5796 C18.0513,96.3626 16.6063,97.8086 14.8223,97.8086 C13.0393,97.8086 11.5943,96.3626 11.5943,94.5796 C11.5943,92.7966 13.0393,91.3506 14.8223,91.3506 C16.6063,91.3506 18.0513,92.7966 18.0513,94.5796" id="Fill-13"></path>
            <path d="M11.2817,109.1963 C11.2817,110.9793 9.8367,112.4253 8.0527,112.4253 C6.2697,112.4253 4.8247,110.9793 4.8247,109.1963 C4.8247,107.4133 6.2697,105.9673 8.0527,105.9673 C9.8367,105.9673 11.2817,107.4133 11.2817,109.1963" id="Fill-15"></path>
            <path d="M7.1299,124.6724 C7.1299,126.4554 5.6849,127.9014 3.9009,127.9014 C2.1179,127.9014 0.6729,126.4554 0.6729,124.6724 C0.6729,122.8894 2.1179,121.4434 3.9009,121.4434 C5.6849,121.4434 7.1299,122.8894 7.1299,124.6724" id="Fill-17"></path>
            <path d="M6.457,140.6582 C6.457,142.4412 5.012,143.8872 3.228,143.8872 C1.445,143.8872 0,142.4412 0,140.6582 C0,138.8752 1.445,137.4292 3.228,137.4292 C5.012,137.4292 6.457,138.8752 6.457,140.6582" id="Fill-19"></path>
            <path d="M10.3018,156.167 C10.3018,157.95 8.8568,159.396 7.0728,159.396 C5.2898,159.396 3.8448,157.95 3.8448,156.167 C3.8448,154.384 5.2898,152.938 7.0728,152.938 C8.8568,152.938 10.3018,154.384 10.3018,156.167" id="Fill-21"></path>
            <path d="M20.3154,168.833 C20.3154,170.616 18.8704,172.062 17.0864,172.062 C15.3034,172.062 13.8584,170.616 13.8584,168.833 C13.8584,167.05 15.3034,165.604 17.0864,165.604 C18.8704,165.604 20.3154,167.05 20.3154,168.833" id="Fill-23"></path>
        </g>
    </g>
</svg>