<?xml version="1.0" encoding="utf-8"?>
<svg version="1.1" id="Layer_1" xmlns="http://www.w3.org/2000/svg" xmlns:xlink="http://www.w3.org/1999/xlink" x="0px" y="0px"
	 width="124.5px" height="193.5px" viewBox="0 0 124.5 193.5" enable-background="new 0 0 124.5 193.5" xml:space="preserve">
<path display="none" fill="#3A2315" d="M62.33,3.285c0,0-58.047,79.778-58.047,128.616c0,32.059,25.988,58.049,58.047,58.049
	c0.057,0,0.113-0.004,0.17-0.004V3.519C62.388,3.365,62.33,3.285,62.33,3.285z"/>
<path display="none" fill="#A77B52" d="M120.376,131.901c0-47.796-54.445-123.649-57.876-128.383v186.428
	C94.479,189.854,120.376,163.903,120.376,131.901z"/>
<g>
	<g>
		<path fill="#AE527F" d="M121.004,131.87c0,32.104-26.024,58.13-58.13,58.13c-32.1,0-58.123-26.026-58.123-58.13
			c0-48.907,58.123-128.797,58.123-128.797S121.004,82.451,121.004,131.87z"/>
	</g>
	<path fill="#F16522" d="M105.585,128.817c0,23.587-19.124,42.707-42.708,42.707c-23.583,0-42.708-19.12-42.708-42.707
		c0-23.584,19.125-42.708,42.708-42.708C86.461,86.109,105.585,105.233,105.585,128.817z"/>
</g>
</svg>
