<svg xmlns="http://www.w3.org/2000/svg" id="Layer_1" viewBox="78.4 -15.7 76.8 107">
  <style>
    .st0{fill:#C5C5C5;} .st1{fill:#9C9C9C;} .st2{fill:#EDEDEE;} .st3{fill:#DDDDDD;}
  </style>
  <path d="M102.4 20.3l-24-5 13.4 22 10.6-17zM141.8 37.4L132 53.7l-.2.6 23.4 4.7z" class="st0"/>
  <path d="M131.2 20.3l-6.6 16 7.4 17.4 9.8-16.3 13.4-22zM103 53.8l7.3-16.7-8-16.7-10.5 17L78.4 59l24.8-5z" class="st1"/>
  <path d="M132 53.7l-.2.3h-1.6l1.6.3.2-.5zM103.2 54h.2z" class="st2"/>
  <path d="M131.8 54l.2-.3-7.4-17.5-7 16.6-7.3-15.7L103 54l.2.2h.2-.2l15.4 37.3 13.2-37-1.6-.3z" class="st2"/>
  <path d="M117.7-15.7l-15.3 36 8 16.8 7.3 15.8 7-16.6 6.5-16z" class="st3"/>
</svg>
