<?xml version="1.0" encoding="UTF-8" standalone="no"?>
<svg width="7px" height="152px" viewBox="0 0 7 152" version="1.1" xmlns="http://www.w3.org/2000/svg" xmlns:xlink="http://www.w3.org/1999/xlink">
    <!-- Generator: Sketch 41.2 (35397) - http://www.bohemiancoding.com/sketch -->
    <title>Group</title>
    <desc>Created with Sketch.</desc>
    <defs></defs>
    <g id="Page-1" stroke="none" stroke-width="1" fill="none" fill-rule="evenodd">
        <g id="Group" fill="#F65C5E">
            <path d="M6.333,119.166 C6.333,120.915 4.915,122.333 3.167,122.333 C1.417,122.333 -3.10862447e-15,120.915 -3.10862447e-15,119.166 C-3.10862447e-15,117.418 1.417,116 3.167,116 C4.915,116 6.333,117.418 6.333,119.166" id="Fill-1" transform="translate(3.166500, 119.166500) rotate(-360.000000) translate(-3.166500, -119.166500) "></path>
            <path d="M6.333,133.166 C6.333,134.915 4.915,136.333 3.167,136.333 C1.417,136.333 -9.32587341e-15,134.915 -9.32587341e-15,133.166 C-9.32587341e-15,131.418 1.417,130 3.167,130 C4.915,130 6.333,131.418 6.333,133.166" id="Fill-1" transform="translate(3.166500, 133.166500) rotate(-360.000000) translate(-3.166500, -133.166500) "></path>
            <path d="M6.333,148.166 C6.333,149.915 4.915,151.333 3.167,151.333 C1.417,151.333 -1.33226763e-14,149.915 -1.33226763e-14,148.166 C-1.33226763e-14,146.418 1.417,145 3.167,145 C4.915,145 6.333,146.418 6.333,148.166" id="Fill-1" transform="translate(3.166500, 148.166500) rotate(-360.000000) translate(-3.166500, -148.166500) "></path>
            <path d="M6.333,104.166 C6.333,105.915 4.915,107.333 3.167,107.333 C1.417,107.333 -8.8817842e-16,105.915 -8.8817842e-16,104.166 C-8.8817842e-16,102.418 1.417,101 3.167,101 C4.915,101 6.333,102.418 6.333,104.166" id="Fill-3" transform="translate(3.166500, 104.166500) rotate(-360.000000) translate(-3.166500, -104.166500) "></path>
            <path d="M6.333,90.166 C6.333,91.915 4.915,93.333 3.167,93.333 C1.417,93.333 0,91.915 0,90.166 C0,88.418 1.417,87 3.167,87 C4.915,87 6.333,88.418 6.333,90.166" id="Fill-3" transform="translate(3.166500, 90.166500) rotate(-360.000000) translate(-3.166500, -90.166500) "></path>
            <path d="M6.333,76.166 C6.333,77.915 4.915,79.333 3.167,79.333 C1.417,79.333 7.54951657e-15,77.915 7.54951657e-15,76.166 C7.54951657e-15,74.418 1.417,73 3.167,73 C4.915,73 6.333,74.418 6.333,76.166" id="Fill-3" transform="translate(3.166500, 76.166500) rotate(-360.000000) translate(-3.166500, -76.166500) "></path>
            <path d="M6.333,62.166 C6.333,63.915 4.915,65.333 3.167,65.333 C1.417,65.333 7.10542736e-15,63.915 7.10542736e-15,62.166 C7.10542736e-15,60.418 1.417,59 3.167,59 C4.915,59 6.333,60.418 6.333,62.166" id="Fill-3-Copy" transform="translate(3.166500, 62.166500) rotate(-360.000000) translate(-3.166500, -62.166500) "></path>
            <path d="M6.333,45.166 C6.333,46.915 4.915,48.333 3.167,48.333 C1.417,48.333 0,46.915 0,45.166 C0,43.418 1.417,42 3.167,42 C4.915,42 6.333,43.418 6.333,45.166" id="Fill-3" transform="translate(3.166500, 45.166500) rotate(-360.000000) translate(-3.166500, -45.166500) "></path>
            <path d="M6.333,31.166 C6.333,32.915 4.915,34.333 3.167,34.333 C1.417,34.333 0,32.915 0,31.166 C0,29.418 1.417,28 3.167,28 C4.915,28 6.333,29.418 6.333,31.166" id="Fill-3" transform="translate(3.166500, 31.166500) rotate(-360.000000) translate(-3.166500, -31.166500) "></path>
            <path d="M6.333,17.166 C6.333,18.915 4.915,20.333 3.167,20.333 C1.417,20.333 0,18.915 0,17.166 C0,15.418 1.417,14 3.167,14 C4.915,14 6.333,15.418 6.333,17.166" id="Fill-3" transform="translate(3.166500, 17.166500) rotate(-360.000000) translate(-3.166500, -17.166500) "></path>
            <path d="M6.333,3.166 C6.333,4.915 4.915,6.333 3.167,6.333 C1.417,6.333 0,4.915 0,3.166 C0,1.418 1.417,0 3.167,0 C4.915,0 6.333,1.418 6.333,3.166" id="Fill-3-Copy" transform="translate(3.166500, 3.166500) rotate(-360.000000) translate(-3.166500, -3.166500) "></path>
        </g>
    </g>
</svg>